<svg width="1900" height="1000" viewBox="0 0 1900 1000" fill="none" xmlns="http://www.w3.org/2000/svg">
<g clip-path="url(#clip0_1783_69094)">
<rect width="1900" height="1000" fill="white"/>
<g clip-path="url(#clip1_1783_69094)">
<g filter="url(#filter0_f_1783_69094)">
<path d="M1814.79 729.494C1933.33 709.714 1941.74 794.731 2036.75 806.394C2374.26 847.828 2406.27 269.682 2059 182.52C1730.45 100.057 1392.05 574.185 1392.05 574.185C1392.05 574.185 1326.66 699.799 1392.05 750.603C1451.07 796.453 1528.03 794.232 1612.42 778.122C1679.1 765.394 1747.58 740.708 1814.79 729.494Z" fill="#848996"/>
</g>
<g filter="url(#filter1_f_1783_69094)">
<path d="M1583.38 498.73C1757.87 469.602 1770.26 594.803 1910.11 611.98C2406.91 672.998 2454.04 -178.422 1942.86 -306.783C1459.23 -428.224 961.116 270.011 961.116 270.011C961.116 270.011 864.854 455 961.116 529.818C1047.99 597.34 1161.28 594.069 1285.5 570.344C1383.65 551.599 1484.45 515.246 1583.38 498.73Z" fill="url(#paint0_linear_1783_69094)"/>
</g>
<g filter="url(#filter2_f_1783_69094)">
<ellipse cx="589.132" cy="418.744" rx="589.132" ry="418.744" transform="matrix(1 0 0 -1 584.514 409.489)" fill="url(#paint1_linear_1783_69094)"/>
</g>
<ellipse cx="918" cy="524" rx="918" ry="524" transform="matrix(1 0 0 -1 -662 491)" fill="url(#paint2_radial_1783_69094)"/>
<g filter="url(#filter3_f_1783_69094)">
<ellipse cx="1311.71" cy="504.956" rx="1311.71" ry="504.956" transform="matrix(0.976118 0.217239 -0.328063 0.944656 -147.665 -41.5625)" fill="url(#paint3_radial_1783_69094)"/>
</g>
<g filter="url(#filter4_f_1783_69094)">
<path d="M220.472 250.938C154.459 110.491 125.576 3.46466 220.472 -128.321C405.483 -385.256 1068.07 -383.228 1258.53 -128.321C1409.07 73.1522 1189.3 235.083 1029.34 432.837C958.756 520.096 940.453 592.811 816.747 641.566C539.927 750.668 320.912 464.633 220.472 250.938Z" fill="url(#paint4_linear_1783_69094)"/>
</g>
</g>
<rect x="-139" y="806" width="2232" height="194" fill="url(#paint5_linear_1783_69094)"/>
</g>
<defs>
<filter id="filter0_f_1783_69094" x="697.014" y="-493.084" width="2274.03" height="1967.57" filterUnits="userSpaceOnUse" color-interpolation-filters="sRGB">
<feFlood flood-opacity="0" result="BackgroundImageFix"/>
<feBlend mode="normal" in="SourceGraphic" in2="BackgroundImageFix" result="shape"/>
<feGaussianBlur stdDeviation="332.986" result="effect1_foregroundBlur_1783_69094"/>
</filter>
<filter id="filter1_f_1783_69094" x="252.361" y="-986.94" width="2718.68" height="2268.02" filterUnits="userSpaceOnUse" color-interpolation-filters="sRGB">
<feFlood flood-opacity="0" result="BackgroundImageFix"/>
<feBlend mode="normal" in="SourceGraphic" in2="BackgroundImageFix" result="shape"/>
<feGaussianBlur stdDeviation="332.986" result="effect1_foregroundBlur_1783_69094"/>
</filter>
<filter id="filter2_f_1783_69094" x="-81.4583" y="-1093.97" width="2510.21" height="2169.43" filterUnits="userSpaceOnUse" color-interpolation-filters="sRGB">
<feFlood flood-opacity="0" result="BackgroundImageFix"/>
<feBlend mode="normal" in="SourceGraphic" in2="BackgroundImageFix" result="shape"/>
<feGaussianBlur stdDeviation="332.986" result="effect1_foregroundBlur_1783_69094"/>
</filter>
<filter id="filter3_f_1783_69094" x="-723.72" y="-234.908" width="3381.57" height="1910.62" filterUnits="userSpaceOnUse" color-interpolation-filters="sRGB">
<feFlood flood-opacity="0" result="BackgroundImageFix"/>
<feBlend mode="normal" in="SourceGraphic" in2="BackgroundImageFix" result="shape"/>
<feGaussianBlur stdDeviation="199.792" result="effect1_foregroundBlur_1783_69094"/>
</filter>
<filter id="filter4_f_1783_69094" x="-506.32" y="-986.234" width="2481.18" height="2317.78" filterUnits="userSpaceOnUse" color-interpolation-filters="sRGB">
<feFlood flood-opacity="0" result="BackgroundImageFix"/>
<feBlend mode="normal" in="SourceGraphic" in2="BackgroundImageFix" result="shape"/>
<feGaussianBlur stdDeviation="332.986" result="effect1_foregroundBlur_1783_69094"/>
</filter>
<linearGradient id="paint0_linear_1783_69094" x1="1611.7" y1="615.104" x2="1611.7" y2="-320.968" gradientUnits="userSpaceOnUse">
<stop stop-color="#006FCF"/>
<stop offset="1" stop-color="#006FCF"/>
</linearGradient>
<linearGradient id="paint1_linear_1783_69094" x1="589.132" y1="0" x2="589.132" y2="837.489" gradientUnits="userSpaceOnUse">
<stop stop-color="#76A7DD"/>
<stop offset="1" stop-color="#006FCF"/>
</linearGradient>
<radialGradient id="paint2_radial_1783_69094" cx="0" cy="0" r="1" gradientUnits="userSpaceOnUse" gradientTransform="translate(918 420.5) rotate(90) scale(627.5 1099.32)">
<stop offset="0.0679837" stop-color="#F9B31E"/>
<stop offset="0.8" stop-color="white" stop-opacity="0"/>
</radialGradient>
<radialGradient id="paint3_radial_1783_69094" cx="0" cy="0" r="1" gradientUnits="userSpaceOnUse" gradientTransform="translate(1173.8 562.71) rotate(-80.892) scale(538.205 1448.35)">
<stop stop-color="white"/>
<stop offset="1" stop-color="white"/>
</radialGradient>
<linearGradient id="paint4_linear_1783_69094" x1="734" y1="388" x2="734.271" y2="-320.262" gradientUnits="userSpaceOnUse">
<stop stop-color="white"/>
<stop offset="0.672101" stop-color="#F7C025"/>
</linearGradient>
<linearGradient id="paint5_linear_1783_69094" x1="977" y1="1000" x2="977" y2="806" gradientUnits="userSpaceOnUse">
<stop stop-color="white"/>
<stop offset="1" stop-color="white" stop-opacity="0"/>
</linearGradient>
<clipPath id="clip0_1783_69094">
<rect width="1900" height="1000" fill="white"/>
</clipPath>
<clipPath id="clip1_1783_69094">
<rect width="1900" height="1000" fill="white" transform="matrix(1 0 0 -1 0 1000)"/>
</clipPath>
</defs>
</svg>
