<svg width="1900" height="1000" viewBox="0 0 1900 1000" fill="none" xmlns="http://www.w3.org/2000/svg">
<rect width="1900" height="1000" fill="url(#paint0_linear_1541_12691)"/>
<g opacity="0.5">
<path d="M1403.68 346.04C1425.27 398.882 1475.36 433.012 1531.61 433.012C1575.81 433.012 1615.32 411.755 1640.58 378.823V377.326C1615.47 410.707 1575.96 432.113 1531.61 432.113C1475.65 432.113 1425.86 398.133 1404.42 345.591C1420.87 333.017 1430.85 312.958 1430.85 292.001C1430.85 282.121 1428.8 272.691 1424.83 263.859C1486.37 260.116 1538.51 214.61 1551.58 153.236C1583.89 158.026 1613.56 174.492 1635.15 199.64C1637.06 201.886 1638.82 204.131 1640.58 206.526V205.029C1638.97 203.083 1637.5 200.988 1635.74 199.042C1614 173.743 1584.19 157.128 1551.58 152.337C1553.64 142.757 1554.52 132.877 1554.52 122.998C1554.52 71.0541 1526.76 25.5475 1485.78 1.14753H1484.02C1525.73 25.0984 1553.78 70.7547 1553.78 122.848C1553.78 132.578 1552.76 142.458 1550.85 152.038C1544.53 151.14 1537.92 150.691 1531.61 150.691C1475.36 150.691 1425.27 184.821 1403.68 237.662C1392.37 229.28 1379.16 224.938 1365.2 224.938H1338.47C1333.48 224.938 1328.63 225.537 1323.79 226.585C1295.15 200.089 1278.84 162.217 1278.84 122.848C1278.84 89.6161 1290.45 57.4321 1311.45 32.134H1324.81C1348.61 32.134 1370.64 20.0088 1384 0.848145H1382.97C1369.61 19.5598 1348.02 31.2358 1324.81 31.2358H1312.18C1322.61 18.961 1334.8 8.78187 1348.46 0.848145H1346.7C1333.33 8.78187 1321.29 18.961 1311.01 31.2358H1228.17V31.0861H1227.73C1224.8 30.9364 1221.86 30.4873 1218.92 30.0383V28.8407L1218.77 28.3916C1218.04 18.0628 1214.37 8.63218 1208.49 0.848145H1207.17C1213.34 8.63218 1217.16 18.2125 1217.75 28.8407L1217.89 29.1401V29.8886C1199.83 26.4456 1184.11 15.8174 1173.69 0.997837H1172.51C1183.23 16.2665 1199.39 27.1941 1217.89 30.9364V95.6038C1217.89 122.698 1196.3 144.703 1169.72 144.703C1143.14 144.703 1121.55 122.698 1121.55 95.6038V29.4395L1121.69 28.9904C1122.28 18.5119 1126.1 8.78187 1132.27 0.997837H1131.09C1125.22 8.63218 1121.4 18.2125 1120.81 28.5413H1120.67V95.7535C1120.67 123.297 1142.7 145.751 1169.72 145.751C1196.74 145.751 1218.77 123.297 1218.77 95.7535V31.0861C1221.57 31.5352 1224.36 31.9843 1227.15 32.134V32.2837H1310.13C1289.27 57.5818 1277.82 89.7657 1277.82 122.998C1277.82 162.367 1294.12 200.239 1322.61 227.034C1295.88 233.77 1276.05 256.823 1273.12 284.666C1256.96 277.181 1239.78 273.439 1222.01 273.439C1200.12 273.439 1178.53 279.427 1159.73 290.654C1160.17 284.816 1160.47 279.127 1160.47 273.439C1160.47 200.688 1121.25 134.674 1057.95 100.843C1082.19 81.0835 1096.14 51.5941 1096.14 19.8591C1096.14 13.4224 1095.55 7.28494 1094.52 1.29722H1093.64C1094.67 7.28494 1095.4 13.572 1095.4 19.8591C1095.4 51.4444 1081.45 80.7842 1057.22 100.394C1030.34 86.1731 1000.09 78.6885 969.537 78.6885C940.604 78.6885 912.845 85.1253 886.996 97.6995C864.672 78.0897 851.895 49.7977 851.895 19.7095C851.895 13.4224 852.482 7.13525 853.51 1.14753H852.629C851.601 7.28494 851.013 13.4224 851.013 19.7095C851.013 49.7977 863.791 78.3891 886.115 97.9989C837.061 122.249 800.49 166.558 785.656 219.849C778.607 215.957 770.529 213.861 762.451 213.861C735.427 213.861 713.397 236.315 713.397 263.859C713.397 291.402 735.427 313.856 762.451 313.856C769.207 313.856 775.669 312.509 781.838 309.814C783.894 320.892 786.978 331.819 790.797 342.298C781.544 340.352 771.998 339.304 762.451 339.304C712.956 339.304 666.986 366.398 642.312 410.109C627.331 396.037 610.147 384.96 591.495 377.026C600.895 367.596 606.035 355.022 606.035 341.549C606.035 314.006 584.005 291.552 556.981 291.552H554.778C583.27 266.853 603.391 233.022 611.469 195.898C623.806 198.593 636.437 199.94 648.921 199.94C746.736 199.94 826.339 118.806 826.339 19.1107V0.997837H825.458V19.2604C825.458 118.507 746.295 199.191 648.921 199.191C636.437 199.191 623.806 197.844 611.616 195.15C614.26 182.875 615.582 170.301 615.582 157.577C615.582 115.812 600.895 75.2455 574.311 43.5106C559.624 25.8469 541.706 11.4763 521.585 0.997837H519.529C540.091 11.4763 558.596 25.9966 573.724 44.1094C600.16 75.6946 614.7 115.962 614.7 157.577C614.7 170.151 613.379 182.725 610.735 194.85C572.255 186.168 537.153 164.163 512.039 132.728C486.483 100.843 472.384 60.4259 472.384 19.1107V0.997837H471.503V19.2604C471.503 60.7253 485.602 101.292 511.304 133.326C536.566 164.912 571.668 187.066 610.441 195.748C602.363 232.872 581.949 266.853 553.162 291.552H490.889V291.702C468.418 293.198 450.06 309.814 445.947 332.418C444.919 332.418 444.038 332.418 443.01 332.418C348.426 332.418 271.466 253.979 271.466 157.577C271.76 89.0173 310.534 29.7389 366.932 0.997837H364.875C309.065 30.188 270.732 89.3167 270.732 157.577C270.732 254.428 348.132 333.316 443.157 333.316C444.038 333.316 444.919 333.316 445.947 333.316C445.507 336.16 445.213 338.855 445.213 341.699C445.213 355.171 450.353 367.746 459.753 377.176C416.427 395.439 381.765 431.515 364.875 476.123H250.758C243.561 476.123 236.805 477.62 230.637 480.464V481.512C236.805 478.668 243.561 477.021 250.758 477.021H364.582C358.413 493.637 354.595 511.151 353.566 528.965H353.273V575.819H250.758C243.561 575.819 236.805 574.172 230.637 571.328V572.376C236.805 575.22 243.561 576.717 250.758 576.717H353.273V687.49C346.37 684.795 339.026 683.298 331.389 683.298C298.05 683.298 270.879 710.991 270.879 744.972V809.34H271.76V745.271C271.76 711.74 298.49 684.496 331.389 684.496C338.88 684.496 346.223 685.843 353.273 688.687V702.758C353.273 741.828 365.463 778.503 388.668 809.34H389.843C366.491 778.503 354.154 741.828 354.154 702.758V688.987C376.625 698.417 391.165 720.422 391.165 745.271V809.34H392.046V745.271C392.046 719.973 377.212 697.519 354.154 688.088V576.867H437.282C464.6 576.867 486.777 554.263 486.777 526.42C486.777 498.577 464.6 475.973 437.282 475.973H365.904C382.94 431.664 417.308 395.888 460.634 377.775C469.006 385.858 479.727 390.649 491.183 391.397V391.547H557.128C569.758 391.547 581.802 386.607 590.908 377.775C609.707 385.709 626.891 396.786 642.018 411.007C630.269 432.113 624.1 456.064 624.1 480.464C624.1 490.344 625.128 500.074 627.037 509.654H603.245C523.494 509.654 458.578 575.819 458.578 657.102C458.578 738.385 523.494 804.549 603.245 804.549H662.286C663.167 804.549 664.195 804.549 665.077 804.549C663.902 806.196 662.727 807.843 661.552 809.34H662.727C663.902 807.693 665.077 806.046 666.252 804.4C680.939 803.951 695.332 801.406 709.137 796.466C708.844 799.46 708.697 802.454 708.697 805.298C708.697 806.645 708.697 807.843 708.844 809.19H709.725C709.725 807.843 709.578 806.645 709.578 805.298C709.578 802.304 709.725 799.161 710.019 796.167C750.702 781.646 783.6 748.415 798.287 707.099C801.078 706.8 803.721 706.8 806.365 706.8C859.679 706.8 903.152 751.109 903.152 805.448C903.152 806.795 903.152 807.992 903.005 809.34H903.886C903.886 807.992 904.033 806.795 904.033 805.448C904.033 750.51 860.266 705.902 806.365 705.902C803.868 705.902 801.225 706.052 798.581 706.201C804.015 690.483 806.806 674.017 806.806 657.102C806.806 643.18 804.896 629.259 801.078 615.936C812.68 612.493 823.696 607.554 834.123 601.117C834.711 628.211 845.286 653.659 864.379 672.82C883.618 692.13 909.027 702.758 935.904 702.758H977.468C1000.67 702.758 1023.29 694.675 1041.21 679.855V774.761L1041.36 775.21C1042.09 787.934 1046.5 799.61 1053.55 809.34H1054.72C1047.52 799.61 1042.97 787.784 1042.24 774.761L1042.09 774.461V679.257C1065.74 659.497 1079.25 630.307 1079.25 599.171C1079.25 596.177 1079.1 593.183 1078.81 590.189C1086.89 586.447 1095.7 584.501 1104.66 584.501C1120.08 584.501 1134.91 590.189 1146.37 600.668C1118.76 640.636 1104.22 687.789 1104.22 736.888C1104.22 761.737 1107.89 786.137 1115.23 809.34H1116.11C1108.77 785.988 1104.95 761.737 1104.95 736.888C1104.95 688.088 1119.49 641.085 1146.81 601.266C1159.73 613.392 1167.08 630.457 1167.08 648.27V665.634C1151.21 674.466 1141.37 691.232 1141.37 709.644C1141.37 728.056 1151.21 744.822 1167.08 753.654V774.461H1166.93V774.91C1166.2 787.634 1161.64 799.61 1154.45 809.489H1155.62C1162.67 799.759 1167.08 787.934 1167.96 775.359H1168.1V754.253C1174.13 757.396 1180.59 759.193 1187.34 759.642V759.791H1253.29C1280.31 759.791 1302.34 737.337 1302.34 709.794C1302.34 682.25 1280.31 659.796 1253.29 659.796H1187.79L1187.34 659.946C1180.59 660.395 1174.13 662.191 1168.1 665.335V648.42C1168.1 630.307 1160.61 612.943 1147.54 600.668C1155.62 588.992 1164.87 577.914 1175.01 567.885C1189.99 574.172 1205.7 577.316 1222.01 577.316C1244.62 577.316 1266.8 571.029 1286.04 559.053C1301.76 595.129 1336.71 618.331 1375.34 618.331C1420.43 618.331 1459.2 587.345 1470.07 542.886C1532.19 587.195 1569.35 659.647 1569.35 736.888C1569.35 747.966 1568.62 759.043 1567.15 769.97C1555.4 762.486 1541.89 758.594 1528.08 758.594C1495.77 758.594 1468.31 779.85 1458.32 809.34H1459.2C1469.19 780.299 1496.21 759.492 1528.08 759.492C1541.89 759.492 1555.4 763.384 1567 770.869C1565.09 784.042 1562.16 796.765 1558.34 809.19H1559.22C1563.04 796.915 1565.97 784.341 1567.74 771.318C1581.54 780.449 1591.68 793.772 1596.96 809.19H1597.84C1592.56 793.472 1582.13 779.7 1567.88 770.419C1569.5 759.342 1570.23 747.966 1570.23 736.739C1570.23 659.048 1532.93 586.297 1470.36 541.838C1472.12 534.204 1473.01 526.42 1473.01 518.636C1473.01 463.699 1429.24 419.09 1375.34 419.09C1365.2 419.09 1355.22 420.737 1345.67 423.731V399.331C1345.67 385.409 1343.47 371.787 1339.06 358.614H1365.06C1379.16 358.764 1392.37 354.273 1403.68 346.04ZM437.282 476.872C464.012 476.872 485.896 499.026 485.896 526.42C485.896 553.664 464.159 575.968 437.282 575.968H354.154V529.863H354.448V529.414C355.476 511.451 359.148 493.787 365.463 477.021H437.282V476.872ZM491.624 292.6L491.918 292.45H552.428C522.907 317.299 485.602 331.37 447.122 332.268C451.235 310.114 469.446 293.797 491.624 292.6ZM556.981 390.649H491.918L491.477 390.499C480.168 389.9 469.593 385.11 461.369 377.326C481.784 368.943 503.373 364.602 525.551 364.602C547.728 364.602 569.318 368.793 589.733 377.326C580.92 386.008 569.318 390.649 556.981 390.649ZM590.614 376.727C570.052 368.195 548.169 363.853 525.698 363.853C503.226 363.853 481.343 368.195 460.781 376.727C451.382 367.446 446.241 354.872 446.241 341.549C446.241 338.855 446.535 336.011 446.975 333.166C486.043 332.268 523.935 317.898 553.75 292.45H556.981C583.564 292.45 605.154 314.455 605.154 341.549C605.154 354.872 600.013 367.446 590.614 376.727ZM1167.37 752.606C1152.1 743.924 1142.55 727.607 1142.55 709.644C1142.55 691.681 1152.1 675.365 1167.37 666.682V752.606ZM1168.25 666.233C1174.42 662.94 1181.03 660.994 1187.93 660.695L1188.23 660.545H1253.29C1279.87 660.545 1301.46 682.55 1301.46 709.644C1301.46 736.739 1279.87 758.743 1253.29 758.743H1188.23L1187.79 758.594C1180.88 758.145 1174.27 756.348 1168.1 753.055V666.233H1168.25ZM1429.83 291.851C1429.83 312.509 1420.13 332.119 1403.98 344.543C1397.22 327.777 1393.84 309.964 1393.84 291.851C1393.84 282.121 1394.87 272.241 1396.78 262.661C1403.24 263.559 1409.7 264.008 1416.02 264.008C1418.37 264.008 1421.01 264.008 1423.51 263.859C1427.77 272.691 1429.83 281.971 1429.83 291.851ZM1531.46 151.589C1537.78 151.589 1544.24 152.038 1550.55 152.936C1537.48 214.011 1485.64 259.218 1424.24 262.811C1419.69 253.081 1412.79 244.698 1404.27 238.111C1425.71 185.569 1475.65 151.589 1531.46 151.589ZM1403.98 239.159C1412.2 245.446 1418.81 253.68 1423.22 262.96C1420.72 263.11 1418.37 263.11 1416.17 263.11C1409.85 263.11 1403.39 262.661 1397.07 261.763C1398.84 253.979 1401.19 246.494 1403.98 239.159ZM1338.33 225.837H1365.06C1378.86 225.837 1392.08 230.178 1403.24 238.561C1400.31 246.045 1397.96 253.829 1396.19 261.613C1369.46 257.572 1344.64 245.746 1324.37 227.334C1329.07 226.435 1333.63 225.837 1338.33 225.837ZM1273.85 285.863C1303.67 300.084 1327.02 326.281 1337.89 357.866C1302.34 357.566 1273.56 328.077 1273.56 291.851C1273.56 289.905 1273.7 287.81 1273.85 285.863ZM969.39 79.4369C999.939 79.4369 1029.17 86.6222 1056.19 100.843C1038.27 115.064 1016.98 122.548 994.211 122.548H952.647C928.854 122.548 905.796 114.016 887.584 98.2982C913.286 85.724 940.751 79.4369 969.39 79.4369ZM762.451 312.958C735.868 312.958 714.278 290.953 714.278 263.859C714.278 236.764 735.868 214.759 762.451 214.759C770.529 214.759 778.46 216.855 785.363 220.747C780.663 237.812 778.313 255.476 778.313 273.289C778.313 285.265 779.341 297.24 781.544 309.066C775.523 311.611 769.06 312.958 762.451 312.958ZM779.341 273.289C779.341 255.626 781.691 238.111 786.244 221.346C801.372 230.028 810.624 246.345 810.624 264.008C810.624 283.169 799.609 300.683 782.425 308.617C780.369 296.941 779.341 285.115 779.341 273.289ZM782.572 309.515C800.197 301.432 811.505 283.618 811.505 263.859C811.505 245.746 801.959 229.13 786.391 220.298C801.225 167.157 837.648 122.848 886.703 98.5976C905.061 114.615 928.56 123.297 952.647 123.297H994.211C1017.27 123.297 1039.01 115.663 1057.07 101.142C1120.23 134.674 1159.44 200.539 1159.44 273.14C1159.44 278.978 1159.15 284.965 1158.71 290.953C1121.4 313.557 1098.19 355.171 1098.19 399.331V415.647C1062.95 448.729 1017.27 466.992 969.39 466.992C944.863 466.992 920.923 462.202 898.305 452.921C887.584 397.684 845.873 354.423 791.825 342.447C787.86 331.819 784.775 320.742 782.572 309.515ZM1158.71 292.151C1154.3 339.004 1133.15 382.565 1099.22 414.899V399.48C1099.22 355.77 1121.99 314.754 1158.71 292.151ZM897.277 452.621C863.057 437.952 808.421 385.409 792.266 343.645C845.432 355.471 886.556 398.133 897.277 452.621ZM624.834 480.464C624.834 456.364 631.003 432.563 642.459 411.606C670.805 438.55 689.457 474.626 695.185 513.546C684.463 511.002 673.301 509.654 662.139 509.654H627.772C625.862 500.074 624.834 490.344 624.834 480.464ZM697.829 528.815C697.535 524.175 697.094 519.384 696.36 514.744C745.855 527.019 785.51 565.49 800.05 615.338C787.859 618.93 775.229 620.727 762.451 620.727C739.98 620.727 717.803 615.038 698.122 604.41V528.815H697.829ZM696.947 529.414V529.863H697.241V603.961C661.845 584.501 636.731 550.521 628.066 510.702H662.286C673.448 510.702 684.61 512.049 695.332 514.594C696.213 519.534 696.654 524.474 696.947 529.414ZM665.811 803.502C664.636 803.502 663.461 803.502 662.286 803.502H603.098C523.788 803.502 459.312 737.786 459.312 656.952C459.312 576.118 523.788 510.403 603.098 510.403H627.037C635.703 550.82 661.111 585.1 697.094 604.709V702.459C697.241 739.134 686.373 774.012 665.811 803.502ZM710.166 795.268C714.865 748.415 751.436 711.59 797.406 707.249C782.866 747.966 750.408 780.748 710.166 795.268ZM806.071 657.102C806.071 674.017 803.281 690.483 797.7 706.201C750.995 710.393 713.837 747.966 709.284 795.568C695.625 800.358 681.379 803.052 666.839 803.502C687.254 773.862 697.975 738.984 697.975 702.609V605.308C717.656 615.936 739.98 621.475 762.304 621.475C775.229 621.475 787.859 619.679 800.197 616.086C804.162 629.409 806.071 643.18 806.071 657.102ZM834.27 599.919V600.069C823.843 606.506 812.68 611.595 801.078 615.038C786.391 564.741 746.295 525.971 696.36 513.696C690.632 474.477 671.833 437.802 643.193 410.707C667.72 367.147 713.397 340.202 762.598 340.202C772.291 340.202 781.838 341.25 791.237 343.196C799.022 363.554 815.618 387.056 838.089 409.66C858.504 430.167 880.828 446.484 897.571 453.52C899.187 462.351 900.068 471.333 900.068 480.315C900.068 487.799 899.48 495.284 898.305 502.619C879.653 510.253 863.791 523.127 852.335 540.042C840.586 557.406 834.27 577.765 834.27 599.021C834.27 599.32 834.27 599.62 834.27 599.919ZM835.151 599.021C835.151 556.808 859.826 519.534 898.159 503.667C891.696 543.335 868.785 578.064 835.151 599.47C835.151 599.32 835.151 599.171 835.151 599.021ZM1041.36 648.12V678.658C1023.44 693.627 1000.82 701.86 977.615 701.86H936.051C909.321 701.86 884.059 691.382 865.113 672.221C846.167 653.21 835.592 627.762 835.151 600.668C869.372 579.112 892.577 543.784 899.04 503.517C910.789 498.877 923.273 496.481 935.904 496.481H977.468C1002.88 496.481 1027.11 506.062 1045.76 523.576C1064.27 540.94 1075.58 564.292 1077.93 589.74C1055.75 600.069 1041.36 623.122 1041.36 648.12ZM1042.24 678.059V648.27C1042.24 623.72 1056.34 601.117 1078.07 590.638C1078.37 593.482 1078.37 596.476 1078.37 599.171C1078.51 629.708 1065.3 658.449 1042.24 678.059ZM1146.96 599.919C1135.35 589.291 1120.37 583.603 1104.8 583.603C1095.84 583.603 1087.03 585.549 1078.81 589.291C1076.46 563.843 1064.86 540.341 1046.35 522.827C1027.55 505.164 1003.02 495.434 977.468 495.434H935.904C923.273 495.434 910.936 497.829 899.187 502.469C900.362 495.284 900.802 487.949 900.802 480.614C900.802 471.782 899.921 462.95 898.305 454.268C920.923 463.549 944.716 468.189 969.243 468.189C1017.12 468.189 1062.8 450.077 1098.05 417.144V451.274C1098.05 502.319 1127.86 547.826 1173.98 567.586C1164.29 577.316 1155.03 588.243 1146.96 599.919ZM1222.01 576.118C1206 576.118 1190.43 572.975 1175.74 566.987C1204.38 538.695 1239.92 518.187 1278.26 508.008C1277.82 511.6 1277.67 515.193 1277.67 518.636C1277.67 532.258 1280.31 545.581 1285.6 558.005C1266.65 569.981 1244.62 576.118 1222.01 576.118ZM1278.7 518.636C1278.7 515.043 1278.84 511.301 1279.28 507.708C1297.35 502.918 1316.15 500.373 1334.95 500.224C1325.11 523.726 1307.92 544.084 1286.48 557.556C1281.34 545.281 1278.7 532.108 1278.7 518.636ZM1279.43 506.81C1283.84 469.088 1309.54 437.053 1344.94 425.078V450.975C1344.94 467.74 1341.7 484.057 1335.39 499.326C1316.44 499.475 1297.64 502.02 1279.43 506.81ZM1375.48 617.284C1337.15 617.284 1302.34 594.231 1286.92 558.454C1308.66 544.832 1325.99 524.175 1335.98 500.373H1337.45C1385.03 500.373 1430.56 514.894 1469.48 542.437C1458.76 586.447 1420.13 617.284 1375.48 617.284ZM1345.82 424.779C1355.36 421.635 1365.35 419.988 1375.48 419.988C1428.8 419.988 1472.27 464.297 1472.27 518.636C1472.27 526.27 1471.39 533.905 1469.63 541.24C1430.71 513.846 1384.88 499.326 1337.3 499.326H1336.27C1342.59 484.057 1345.67 467.74 1345.67 450.975V424.779H1345.82ZM1344.94 399.48V424.18C1308.95 436.305 1282.96 468.788 1278.55 507.11C1239.78 517.438 1203.94 538.096 1175.01 566.687C1129.04 547.227 1099.37 501.87 1099.37 451.125V416.246C1134.03 383.613 1155.47 339.454 1159.73 291.702C1178.53 280.325 1200.12 274.337 1222.15 274.337C1239.92 274.337 1257.11 278.079 1273.12 285.564C1272.97 287.66 1272.82 289.755 1272.82 292.001C1272.82 328.825 1302.2 358.764 1338.33 358.914C1342.59 371.787 1344.94 385.559 1344.94 399.48ZM1338.91 357.866C1327.9 325.831 1304.25 299.186 1274 284.965C1276.79 257.122 1296.62 234.07 1323.49 227.633C1343.91 246.494 1369.02 258.47 1396.19 262.511C1394.14 272.092 1393.26 281.971 1393.26 291.851C1393.26 310.263 1396.63 328.227 1403.54 345.142C1392.37 353.375 1379.16 357.866 1365.35 357.866H1338.91Z" fill="url(#paint1_linear_1541_12691)"/>
<path d="M1669.5 291.841C1669.5 369.546 1607.7 432.521 1531.48 432.521C1455.27 432.521 1393.46 369.546 1393.46 291.841C1393.46 214.136 1455.27 151.16 1531.48 151.16C1607.7 151.16 1669.5 214.136 1669.5 291.841Z" stroke="#4595DC"/>
</g>
<defs>
<linearGradient id="paint0_linear_1541_12691" x1="950" y1="0" x2="950" y2="1000" gradientUnits="userSpaceOnUse">
<stop stop-color="#EDF6FE"/>
<stop offset="0.65" stop-color="white"/>
</linearGradient>
<linearGradient id="paint1_linear_1541_12691" x1="935.61" y1="0.848145" x2="935.61" y2="809.489" gradientUnits="userSpaceOnUse">
<stop stop-color="#006FCF"/>
<stop offset="0.725" stop-color="#D3E6F7"/>
<stop offset="0.96" stop-color="white"/>
</linearGradient>
</defs>
</svg>
