<svg width="1900" height="807" viewBox="0 0 1900 807" fill="none" xmlns="http://www.w3.org/2000/svg">
<g clip-path="url(#clip0_1761_70829)">
<rect width="1900" height="807" fill="url(#paint0_linear_1761_70829)"/>
<path d="M1343.92 806.477C1298.69 806.477 1254.97 793.303 1217.49 768.377C1199.41 756.356 1183.14 741.842 1169.13 725.234C1155.12 708.622 1143.58 690.168 1134.83 670.374C1128.73 672.319 1122.37 673.303 1115.9 673.303C1083.1 673.303 1055.92 647.813 1053.83 615.195H1053.7V523.614C1045.15 530.492 1035.61 535.874 1025.33 539.615C1014.4 543.596 1002.9 545.614 991.16 545.614H950.383C923.938 545.614 899.019 535.383 880.22 516.809C861.619 498.431 851.126 473.987 850.62 447.899C840.484 454.053 829.599 458.842 818.255 462.142C821.98 474.957 823.869 488.26 823.869 501.688C823.869 517.858 821.155 533.722 815.808 548.852C818.381 548.648 820.942 548.546 823.43 548.546C849.009 548.546 873.06 558.495 891.149 576.564C909.238 594.633 919.199 618.656 919.199 644.207C919.199 669.757 910.016 691.821 893.312 709.612H1049.79C1076.52 709.612 1098.27 731.337 1098.27 758.042C1098.27 784.746 1076.52 806.474 1049.79 806.474H808.651C781.916 806.474 760.167 784.749 760.167 758.042C760.167 745.933 764.658 734.372 772.824 725.429C759.348 717.033 748.077 705.334 740.207 691.567C732 677.213 727.661 660.836 727.661 644.207C727.661 641.4 727.79 638.541 728.041 635.691C714.493 640.326 700.336 642.869 685.946 643.255C682.195 648.523 678.101 653.622 673.774 658.423C697.386 666.834 713.201 689.207 713.201 714.308C713.201 747.017 686.56 773.631 653.814 773.631C621.069 773.631 594.425 747.02 594.425 714.308C594.425 712.159 594.545 709.974 594.782 707.81C579.649 712.144 563.948 714.343 548.096 714.343C522.028 714.343 497.028 708.573 473.79 697.192C452.014 686.526 432.408 670.952 417.021 652.109V747.148C417.021 779.857 390.38 806.471 357.631 806.471C324.883 806.471 298.245 779.86 298.245 747.148V586.336C298.245 553.627 324.886 527.013 357.631 527.013C365.017 527.013 372.215 528.351 379.042 530.988V424.507H278.484C251.749 424.507 230 402.782 230 376.078C230 349.373 251.749 327.648 278.484 327.648H390.444C407.095 284.783 440.986 250.187 483.529 232.607C474.343 223.515 469.293 211.428 469.293 198.487C469.293 195.847 469.522 193.163 469.969 190.497C469.092 190.512 468.191 190.526 467.302 190.526C444.48 190.526 422.342 186.061 401.499 177.256C381.369 168.752 363.289 156.576 347.764 141.066C332.239 125.559 320.05 107.499 311.533 87.3918C302.718 66.5722 298.248 44.4589 298.248 21.6621C298.248 -1.13464 302.718 -23.248 311.533 -44.0677C320.047 -64.1747 332.236 -82.2346 347.764 -97.7419C363.289 -113.249 381.369 -125.425 401.499 -133.932C422.342 -142.737 444.48 -147.202 467.302 -147.202C476.6 -147.202 485.97 -146.431 495.162 -144.907V-182.32C495.162 -205.768 499.761 -228.515 508.828 -249.931C517.587 -270.613 530.124 -289.19 546.093 -305.141C562.063 -321.092 580.66 -333.615 601.366 -342.365C622.803 -351.406 645.575 -356 669.05 -356C684.016 -356 698.874 -354.099 713.215 -350.346C727.132 -346.704 740.581 -341.322 753.188 -334.342C777.923 -320.651 799.184 -300.906 814.682 -277.234H946.761C973.287 -277.234 994.867 -255.678 994.867 -229.181C994.867 -222.715 993.595 -216.439 991.09 -210.511H1007.57C1034.22 -210.511 1059.28 -200.143 1078.13 -181.315C1096.98 -162.49 1107.36 -137.46 1107.36 -110.834C1107.36 -95.3209 1103.89 -80.459 1097.04 -66.66C1090.62 -53.705 1081.25 -42.0818 1069.92 -33.011C1099.64 -17.4656 1124.7 5.80716 1142.41 34.3221C1160.76 63.8445 1170.45 97.9053 1170.45 132.825C1170.45 138.26 1170.2 143.826 1169.71 149.386C1188.2 138.598 1209.31 132.901 1230.83 132.901C1248.29 132.901 1265.13 136.528 1280.91 143.686C1282.35 130.45 1287.79 118.179 1296.65 108.162C1305.4 98.2821 1316.72 91.4279 1329.45 88.303C1315.84 75.827 1305.1 61.0176 1297.51 44.269C1289.53 26.6735 1285.49 7.87775 1285.49 -11.5927C1285.49 -27.9762 1288.38 -43.9917 1294.09 -59.1954C1299.5 -73.5872 1307.27 -86.8722 1317.21 -98.694H1235.81V-98.8371C1233.08 -99.0094 1230.34 -99.3453 1227.63 -99.833V-37.7946C1227.63 -11.3006 1206.05 10.2549 1179.52 10.2549C1153 10.2549 1131.42 -11.3006 1131.42 -37.7946V-102.339H1131.52C1133.03 -125.121 1150.38 -143.674 1173.02 -146.729C1170.48 -154.132 1169.19 -161.886 1169.19 -169.783C1169.19 -207.284 1198.42 -238.369 1235.8 -240.728V-240.871H1331.48C1350.49 -240.871 1368.36 -233.477 1381.8 -220.052C1395.25 -206.627 1402.65 -188.774 1402.65 -169.783C1402.65 -161.351 1401.18 -153.101 1398.29 -145.248C1405.83 -146.53 1413.54 -147.179 1421.23 -147.179C1439.55 -147.179 1457.33 -143.592 1474.06 -136.522C1490.23 -129.694 1504.74 -119.917 1517.21 -107.464C1529.68 -95.0114 1539.46 -80.5115 1546.3 -64.3646C1553.38 -47.6481 1556.97 -29.892 1556.97 -11.5869C1556.97 -2.12762 1555.98 7.34622 1554.03 16.5806C1585.89 21.227 1615.15 37.1695 1636.47 61.5082C1658.09 86.2003 1670 117.887 1670 150.733C1670 169.038 1666.41 186.794 1659.33 203.51C1652.5 219.657 1642.71 234.157 1630.24 246.61C1617.77 259.062 1603.26 268.837 1587.09 275.668C1570.36 282.738 1552.58 286.325 1534.26 286.325C1506.82 286.325 1480.38 278.188 1457.81 262.792C1435.93 247.866 1419.02 227.125 1408.88 202.783C1397.85 210.791 1384.8 215.02 1371.11 215.02H1345.69C1349.97 227.581 1352.14 240.722 1352.14 254.092V277.517C1361.53 274.523 1371.33 273.008 1381.26 273.008C1406.83 273.008 1430.89 282.957 1448.97 301.026C1467.06 319.095 1477.02 343.118 1477.02 368.669C1477.02 376.192 1476.14 383.694 1474.4 390.975C1503.97 411.564 1528.56 439.188 1545.52 470.88C1554.18 487.065 1560.86 504.275 1565.37 522.034C1570.01 540.325 1572.37 559.258 1572.37 578.305C1572.37 589.113 1571.6 599.995 1570.09 610.654C1580.07 617.061 1588.4 625.896 1594.2 636.222C1600.23 646.958 1603.42 659.183 1603.42 671.568V701.085C1603.42 720.409 1595.88 738.58 1582.2 752.245C1568.52 765.909 1550.33 773.435 1530.99 773.435C1514.47 773.435 1498.33 767.74 1485.51 757.393C1465.81 772.947 1443.89 785.067 1420.34 793.417C1395.85 802.099 1370.14 806.5 1343.92 806.5L1343.92 806.477ZM1135.67 670.099C1144.38 689.786 1155.86 708.143 1169.8 724.667C1183.76 741.211 1199.97 755.673 1217.97 767.647C1255.31 792.476 1298.87 805.6 1343.92 805.6C1370.04 805.6 1395.65 801.217 1420.04 792.57C1443.45 784.273 1465.24 772.241 1484.81 756.803C1468.12 742.993 1458.55 722.708 1458.55 701.064V671.548C1458.55 652.223 1466.09 634.052 1479.77 620.388C1493.45 606.723 1511.64 599.197 1530.98 599.197C1544.58 599.197 1557.8 602.973 1569.27 610.123C1570.74 599.63 1571.49 588.923 1571.49 578.287C1571.49 559.31 1569.14 540.45 1564.51 522.23C1560.02 504.541 1553.37 487.395 1544.74 471.274C1527.9 439.804 1503.5 412.358 1474.17 391.868C1469.12 412.107 1457.31 430.421 1440.88 443.501C1432.59 450.107 1423.34 455.25 1413.39 458.79C1403.09 462.452 1392.28 464.309 1381.25 464.309C1343.31 464.309 1308.98 441.953 1293.63 407.312C1274.74 418.757 1253.03 424.802 1230.82 424.802C1214.9 424.802 1199.42 421.762 1184.8 415.766C1174.93 425.406 1165.89 436.002 1157.92 447.269C1170.75 459.02 1178.1 475.696 1178.1 493.084V509.395C1183.98 506.369 1190.3 504.617 1196.91 504.182V504.077H1261.52C1288.05 504.077 1309.63 525.632 1309.63 552.126C1309.63 578.62 1288.05 600.179 1261.52 600.179H1196.91V600.073C1190.3 599.638 1183.98 597.886 1178.1 594.858V615.198H1177.98C1177.17 627.68 1172.68 639.484 1164.97 649.358C1157.39 659.057 1147.27 666.221 1135.66 670.099H1135.67ZM773.581 725.902C765.491 734.702 761.041 746.103 761.041 758.047C761.041 784.27 782.399 805.603 808.648 805.603H1049.79C1076.04 805.603 1097.39 784.27 1097.39 758.047C1097.39 731.825 1076.04 710.494 1049.79 710.494H892.476C883.655 719.661 873.294 726.875 861.678 731.936C849.591 737.201 836.721 739.874 823.427 739.874C805.788 739.874 788.562 735.043 773.581 725.902ZM357.631 527.898C325.368 527.898 299.122 554.118 299.122 586.345V747.157C299.122 779.384 325.368 805.603 357.631 805.603C389.894 805.603 416.143 779.384 416.143 747.157V651.035C404.39 636.392 395.23 620.055 388.918 602.471C382.366 584.221 379.045 565.049 379.045 545.488V531.94C372.224 529.259 365.022 527.901 357.634 527.901L357.631 527.898ZM595.691 707.553C595.431 709.802 595.299 712.077 595.299 714.314C595.299 746.541 621.548 772.76 653.811 772.76C686.074 772.76 712.32 746.541 712.32 714.314C712.32 689.461 696.585 667.325 673.131 659.133C652.177 682.122 625.408 698.859 595.691 707.553ZM1486.2 756.812C1498.85 766.958 1514.73 772.536 1530.98 772.536C1550.09 772.536 1568.06 765.1 1581.58 751.602C1595.09 738.104 1602.54 720.152 1602.54 701.061V671.545C1602.54 659.308 1599.39 647.235 1593.43 636.628C1587.77 626.544 1579.65 617.897 1569.94 611.586C1565.73 640.375 1556.16 667.731 1541.49 692.902C1527.15 717.524 1508.55 739.024 1486.21 756.809L1486.2 756.812ZM1530.98 600.07C1511.87 600.07 1493.9 607.506 1480.38 621.004C1466.87 634.505 1459.43 652.454 1459.43 671.545V701.061C1459.43 722.506 1468.93 742.598 1485.51 756.245C1507.83 738.501 1526.41 717.045 1540.73 692.461C1555.41 667.272 1564.96 639.887 1569.13 611.066C1557.72 603.87 1544.54 600.068 1530.98 600.068L1530.98 600.07ZM774.192 725.248C789 734.243 806.013 738.995 823.427 738.995C836.601 738.995 849.352 736.349 861.327 731.13C872.58 726.227 882.644 719.285 891.254 710.491H808.648C795.675 710.491 783.15 715.862 774.192 725.245V725.248ZM728.948 635.381C728.673 638.334 728.535 641.301 728.535 644.21C728.535 660.687 732.833 676.912 740.964 691.135C748.791 704.826 760.012 716.452 773.429 724.778C782.562 715.138 795.377 709.615 808.651 709.615H892.105C909.013 691.909 918.322 668.688 918.322 644.21C918.322 619.731 908.451 595.088 890.529 577.186C872.607 559.284 848.776 549.425 823.43 549.425C820.837 549.425 818.164 549.539 815.483 549.76C808.396 569.377 796.778 587.533 781.872 602.287C766.959 617.047 748.665 628.486 728.951 635.381H728.948ZM417.021 650.722C432.428 669.845 452.19 685.641 474.176 696.409C497.291 707.729 522.163 713.47 548.096 713.47C563.986 713.47 579.728 711.251 594.89 706.87C598.597 677.272 623.876 654.989 653.811 654.989C660.331 654.989 666.743 656.04 672.871 658.114C677.122 653.418 681.148 648.433 684.846 643.281C683.925 643.298 682.999 643.307 682.086 643.307H624.074C604.936 643.307 586.367 639.563 568.887 632.177C552.002 625.046 536.84 614.833 523.821 601.829C510.798 588.824 500.577 573.676 493.434 556.813C486.04 539.352 482.292 520.808 482.292 501.688C482.292 482.571 486.04 464.023 493.434 446.562C500.574 429.697 510.798 414.551 523.818 401.547C536.837 388.542 552.002 378.329 568.884 371.198C586.364 363.812 604.93 360.068 624.071 360.068H647.423C645.476 350.848 644.491 341.392 644.491 331.947C644.491 308.531 650.563 285.457 662.059 265.195C647.291 251.592 630.442 240.854 611.97 233.272C602.98 241.832 591.212 246.543 578.798 246.543H514.181V246.438C502.977 245.696 492.359 241.035 484.21 233.278C441.831 250.678 408.036 285.04 391.383 327.654H461.42C488.154 327.654 509.904 349.379 509.904 376.084C509.904 402.788 488.154 424.513 461.42 424.513H379.919V531.341C390.704 535.705 399.905 543.082 406.545 552.69C413.398 562.607 417.021 574.245 417.021 586.342V650.722ZM653.814 655.865C624.449 655.865 599.629 677.628 595.811 706.601C625.109 697.957 651.507 681.454 672.228 658.82C666.301 656.858 660.109 655.865 653.814 655.865ZM1054.57 614.316H1054.65L1054.68 614.728C1056.54 647.08 1083.43 672.421 1115.9 672.421C1122.24 672.421 1128.49 671.46 1134.48 669.562C1121.86 640.723 1115.46 610.014 1115.46 578.281C1115.46 531.117 1129.74 485.868 1156.76 447.397C1145.51 437.351 1131.02 431.825 1115.9 431.825C1107.07 431.825 1098.55 433.662 1090.57 437.284C1090.82 440.198 1090.95 443.11 1090.95 445.937C1090.95 475.83 1077.69 503.872 1054.57 522.899V614.316ZM1157.41 447.99C1130.54 486.294 1116.34 531.336 1116.34 578.281C1116.34 609.921 1122.72 640.539 1135.32 669.29C1146.79 665.47 1156.8 658.397 1164.28 648.815C1171.97 638.973 1176.41 627.187 1177.13 614.728L1177.15 614.316H1177.23V594.39C1161.68 585.968 1152.02 569.795 1152.02 552.123C1152.02 534.452 1161.68 518.281 1177.23 509.859V493.084C1177.23 475.979 1170.02 459.572 1157.42 447.99H1157.41ZM379.922 532.285V545.479C379.922 564.941 383.225 584.014 389.742 602.167C395.9 619.316 404.779 635.276 416.143 649.621V586.339C416.143 574.421 412.574 562.955 405.823 553.183C399.35 543.815 390.403 536.601 379.919 532.285H379.922ZM647.616 360.941H624.074C605.053 360.941 586.601 364.662 569.229 372.001C552.449 379.089 537.381 389.237 524.44 402.163C511.5 415.089 501.34 430.14 494.244 446.901C486.897 464.251 483.172 482.685 483.172 501.685C483.172 520.685 486.897 539.116 494.244 556.469C501.34 573.229 511.5 588.281 524.44 601.207C537.381 614.132 552.449 624.281 569.229 631.369C586.598 638.708 605.053 642.428 624.074 642.428H682.086C683.209 642.428 684.349 642.414 685.481 642.387C705.628 613.945 716.273 580.442 716.273 545.479V451.559C699.196 442.427 683.955 429.451 672.19 414.026C660.106 398.179 651.838 380.321 647.613 360.941H647.616ZM717.153 452.026V545.479C717.153 580.404 706.584 613.884 686.577 642.358C700.784 641.914 714.759 639.35 728.129 634.733C730.301 612.681 740.198 591.925 756.015 576.266C771.844 560.595 792.728 550.894 814.846 548.931C820.249 533.783 822.989 517.887 822.989 501.685C822.989 488.338 821.112 475.118 817.41 462.382C805.362 465.802 792.857 467.536 780.232 467.536C758.272 467.536 736.476 462.174 717.148 452.026H717.153ZM814.519 549.839C792.755 551.869 772.221 561.457 756.635 576.888C741.058 592.311 731.275 612.716 729.044 634.415C748.49 627.549 766.529 616.232 781.256 601.659C795.974 587.092 807.467 569.187 814.521 549.839H814.519ZM1197.79 599.297H1261.53C1287.57 599.297 1308.75 578.135 1308.75 552.12C1308.75 526.105 1287.57 504.947 1261.53 504.947H1197.79V505.002L1197.37 505.026C1190.59 505.414 1184.1 507.216 1178.11 510.379V593.862C1184.1 597.025 1190.59 598.826 1197.37 599.215L1197.79 599.238V599.294V599.297ZM1177.23 510.855C1162.2 519.187 1152.9 534.931 1152.9 552.12C1152.9 569.31 1162.2 585.057 1177.23 593.389V510.855ZM851.492 447.365C851.863 473.412 862.28 497.844 880.84 516.182C899.476 534.592 924.172 544.732 950.386 544.732H991.163C1002.8 544.732 1014.2 542.731 1025.03 538.786C1035.44 534.998 1045.08 529.51 1053.7 522.481V493.081C1053.7 480.97 1057.19 469.23 1063.79 459.137C1070.17 449.389 1079.1 441.65 1089.64 436.741C1087.39 412.378 1076.2 389.821 1058.09 373.189C1039.8 356.385 1016.03 347.133 991.163 347.133H950.386C937.893 347.133 925.719 349.429 914.193 353.958C907.867 392.642 885.032 426.665 851.495 447.362L851.492 447.365ZM1089.72 437.672C1079.46 442.517 1070.76 450.096 1064.53 459.616C1058.02 469.569 1054.58 481.14 1054.58 493.081V521.757C1077.15 502.905 1090.07 475.325 1090.07 445.934C1090.07 443.233 1089.96 440.458 1089.73 437.672H1089.72ZM717.153 451.033C736.456 461.254 758.264 466.657 780.238 466.657C792.778 466.657 805.201 464.934 817.167 461.541C802.926 413.655 764.029 376.708 715.472 364.925C716.115 369.475 716.577 374.025 716.843 378.467H717.153V451.033ZM1294.39 406.847C1309.57 441.235 1343.62 463.43 1381.26 463.43C1392.18 463.43 1402.9 461.59 1413.1 457.96C1422.96 454.453 1432.12 449.357 1440.35 442.812C1456.71 429.781 1468.44 411.511 1473.41 391.328C1435.27 364.922 1390.5 350.965 1343.92 350.965C1343.53 350.965 1343.15 350.968 1342.77 350.971H1342.53C1337.62 362.515 1330.95 373.201 1322.71 382.739C1314.54 392.195 1305.02 400.305 1294.39 406.844L1294.39 406.847ZM715.338 363.99C764.359 375.759 803.645 412.998 818.009 461.298C829.447 457.972 840.411 453.121 850.609 446.88V446.708C850.603 446.451 850.597 446.194 850.597 445.934C850.597 425.564 856.708 405.974 868.271 389.284C879.518 373.046 895.122 360.62 913.404 353.328C914.533 346.266 915.103 339.073 915.103 331.941C915.103 323.306 914.269 314.635 912.626 306.166C896.172 299.443 874.405 283.699 854.336 264.004C832.263 242.337 815.954 219.681 808.385 200.178C799.157 198.222 789.69 197.229 780.235 197.229C755.992 197.229 732.219 203.727 711.487 216.024C691.457 227.905 674.754 244.843 663.167 265.02C677.023 277.888 688.539 292.84 697.404 309.472C706.494 326.527 712.528 344.87 715.335 363.987L715.338 363.99ZM648.514 360.941C652.724 380.122 660.925 397.8 672.891 413.494C684.484 428.698 699.477 441.504 716.276 450.566V379.343H716.016L715.993 378.931C715.724 374.273 715.241 369.489 714.557 364.706C703.956 362.209 693.036 360.941 682.089 360.941H648.514ZM1115.9 430.946C1131.2 430.946 1145.87 436.527 1157.27 446.676C1165.18 435.499 1174.14 424.983 1183.92 415.398C1162.26 406.319 1143.8 391.246 1130.51 371.776C1116.78 351.646 1109.51 328.078 1109.51 303.619V270.896C1074.92 302.504 1030.09 319.901 983.164 319.901C959.14 319.901 935.738 315.412 913.597 306.557C915.179 314.904 915.983 323.44 915.983 331.941C915.983 338.948 915.433 346.012 914.351 352.954C925.839 348.509 937.957 346.254 950.386 346.254H991.163C1016.25 346.254 1040.23 355.591 1058.69 372.544C1076.87 389.255 1088.15 411.894 1090.49 436.355C1098.5 432.766 1107.05 430.946 1115.91 430.946H1115.9ZM913.237 354.341C895.327 361.592 880.039 373.835 868.99 389.783C857.529 406.324 851.474 425.742 851.474 445.934C851.474 446.071 851.474 446.209 851.477 446.343C884.407 425.844 906.864 392.388 913.237 354.338V354.341ZM1185.48 415.097C1199.9 420.953 1215.15 423.923 1230.82 423.923C1252.91 423.923 1274.5 417.898 1293.28 406.497C1288.11 394.517 1285.48 381.784 1285.48 368.642C1285.48 365.26 1285.67 361.811 1286.04 358.383C1248.35 368.254 1213.61 387.85 1185.48 415.094V415.097ZM379.922 423.634H461.423C487.675 423.634 509.03 402.3 509.03 376.081C509.03 349.861 487.672 328.527 461.423 328.527H391.046C384.848 344.654 381.202 361.61 380.205 378.931L380.182 379.343H379.922V423.634ZM278.484 328.527C252.232 328.527 230.877 349.858 230.877 376.081C230.877 402.303 252.235 423.634 278.484 423.634H379.045V378.467H379.354C380.381 361.312 383.997 344.517 390.108 328.527H278.484ZM1110.39 270.093V303.622C1110.39 327.903 1117.6 351.301 1131.23 371.285C1144.49 390.715 1162.94 405.734 1184.6 414.735C1212.96 387.169 1248.06 367.366 1286.14 357.454C1290.44 320.619 1315.96 289.4 1351.26 277.776V254.069C1351.26 240.696 1349.07 227.554 1344.76 214.996C1327.61 214.964 1311.5 208.282 1299.37 196.169C1287.22 184.028 1280.52 167.884 1280.52 150.715C1280.52 148.685 1280.62 146.63 1280.81 144.597C1265.07 137.413 1248.25 133.768 1230.82 133.768C1209.25 133.768 1188.09 139.539 1169.61 150.452C1165.33 196.242 1144.3 238.716 1110.39 270.093ZM1286.94 358.149C1286.56 361.654 1286.36 365.185 1286.36 368.645C1286.36 381.624 1288.94 394.202 1294.04 406.035C1304.54 399.552 1313.96 391.527 1322.05 382.17C1330.14 372.798 1336.71 362.308 1341.57 350.983C1323.06 351.169 1304.69 353.582 1286.95 358.149H1286.94ZM1343.92 350.089C1390.56 350.089 1435.4 364.031 1473.62 390.414C1475.3 383.303 1476.14 375.984 1476.14 368.645C1476.14 343.328 1466.27 319.527 1448.35 301.622C1430.43 283.72 1406.6 273.86 1381.25 273.86C1371.32 273.86 1361.53 275.391 1352.14 278.413V303.625C1352.14 319.728 1349.03 335.358 1342.89 350.098C1343.23 350.098 1343.57 350.092 1343.92 350.092V350.089ZM648.324 360.065H682.086C692.983 360.065 703.856 361.312 714.417 363.774C711.601 344.879 705.619 326.752 696.629 309.887C687.843 293.404 676.435 278.574 662.72 265.806C651.367 285.892 645.368 308.747 645.368 331.944C645.368 341.389 646.362 350.848 648.321 360.065H648.324ZM1351.26 278.696C1316.53 290.247 1291.41 320.958 1287.05 357.215C1304.89 352.65 1323.35 350.258 1341.94 350.101C1348.12 335.37 1351.26 319.734 1351.26 303.622V278.696H1351.26ZM913.395 305.535C935.586 314.486 959.058 319.027 983.161 319.027C1030.14 319.027 1075 301.517 1109.51 269.71V254.069C1109.51 232.662 1115.18 211.623 1125.89 193.228C1136.25 175.442 1151.08 160.472 1168.78 149.93C1169.3 144.188 1169.57 138.432 1169.57 132.819C1169.57 98.063 1159.92 64.1629 1141.67 34.7776C1123.96 6.28317 1098.9 -16.9487 1069.16 -32.4211C1060.6 -25.7012 1051.08 -20.4619 1040.85 -16.8494C1030.19 -13.0791 1018.98 -11.1663 1007.56 -11.1663H966.785C943.091 -11.1663 920.14 -19.6034 902.124 -34.9268C878.706 -23.6189 857.439 -7.11273 840.61 12.8162C823.401 33.1919 811.01 56.4559 803.777 81.9715C818.933 90.4875 828.336 106.512 828.336 123.877C828.336 142.754 817.229 159.909 800.011 167.677C802.061 178.488 805.095 189.165 809.031 199.425C834.873 205.003 858.383 217.958 877.027 236.899C895.692 255.865 908.264 279.593 913.392 305.538L913.395 305.535ZM809.414 200.4C817.027 219.669 833.169 241.999 854.95 263.379C874.723 282.785 896.131 298.33 912.422 305.135C907.256 279.581 894.815 256.212 876.405 237.51C858.017 218.828 834.868 206.007 809.414 200.4ZM1409.61 202.222C1419.68 226.494 1436.51 247.174 1458.31 262.044C1480.73 277.339 1506.99 285.425 1534.26 285.425C1552.46 285.425 1570.12 281.862 1586.75 274.839C1602.81 268.055 1617.23 258.341 1629.62 245.967C1642 233.594 1651.73 219.19 1658.52 203.148C1665.55 186.54 1669.12 168.898 1669.12 150.712C1669.12 118.08 1657.29 86.5975 1635.8 62.0631C1614.61 37.8646 1585.52 22.0213 1553.84 17.4187C1550.71 31.7375 1545.3 45.3875 1537.73 57.9891C1530.25 70.4622 1520.86 81.6124 1509.81 91.1241C1498.69 100.697 1486.2 108.357 1472.68 113.895C1458.94 119.519 1444.43 122.828 1429.54 123.725H1429.53C1433.47 132.209 1435.47 141.285 1435.47 150.709C1435.47 161.077 1433.07 170.977 1428.34 180.13C1423.89 188.759 1417.42 196.39 1409.61 202.222H1409.61ZM1168.68 151.007C1151.35 161.456 1136.83 176.19 1126.65 193.663C1116.01 211.927 1110.39 232.814 1110.39 254.066V268.896C1143.63 237.866 1164.3 196.072 1168.68 151.01V151.007ZM612.657 232.604C631.027 240.191 647.794 250.888 662.506 264.413C674.163 244.18 690.937 227.195 711.04 215.274C731.906 202.897 755.834 196.355 780.235 196.355C789.562 196.355 798.9 197.313 808.01 199.206C804.177 189.122 801.213 178.643 799.19 168.036C793.178 170.615 786.805 171.923 780.238 171.923C753.711 171.923 732.132 150.368 732.132 123.871C732.132 97.3738 753.711 75.8182 780.238 75.8182C788.176 75.8182 796.032 77.7924 802.993 81.5335C810.267 55.974 822.699 32.6662 839.943 12.2466C856.772 -7.67932 878.013 -24.1972 901.405 -35.5547C879.533 -54.5227 867.002 -81.925 867.002 -110.846C867.002 -124.443 869.695 -137.623 875.007 -150.02C879.998 -161.667 887.076 -172.134 896.055 -181.143H842.94V-111.205C842.94 -87.7571 838.341 -65.01 829.274 -43.5946C820.515 -22.9122 807.978 -4.33542 792.009 11.6159C776.04 27.5672 757.442 40.0899 736.736 48.8394C715.297 57.8957 692.527 62.4895 669.053 62.4895C656.7 62.4895 644.336 61.1753 632.29 58.5878C628.246 76.6914 621.268 93.9073 611.54 109.765C602.132 125.103 590.396 138.782 576.649 150.441H578.801C605.325 150.441 626.905 171.996 626.905 198.49C626.905 211.422 621.852 223.509 612.657 232.607V232.604ZM515.061 245.664H578.801C590.855 245.664 602.293 241.137 611.081 232.907C591.066 224.824 569.878 220.726 548.099 220.726C526.32 220.726 505.126 224.827 485.108 232.91C493.168 240.457 503.632 244.951 514.649 245.585L515.061 245.608V245.664ZM470.861 190.482C470.402 193.152 470.171 195.844 470.171 198.487C470.171 211.314 475.226 223.29 484.412 232.244C504.647 224.018 526.069 219.847 548.099 219.847C570.129 219.847 591.545 224.018 611.777 232.241C620.969 223.282 626.03 211.308 626.03 198.487C626.03 172.475 604.845 151.314 578.804 151.314H575.608C561.15 163.378 544.933 172.872 527.402 179.534C509.345 186.397 490.324 190.077 470.863 190.48L470.861 190.482ZM1345.38 214.12H1371.11C1384.69 214.12 1397.62 209.906 1408.54 201.928C1401.89 185.649 1398.51 168.422 1398.51 150.715C1398.51 141.256 1399.5 131.782 1401.46 122.548C1374.86 118.669 1350.24 107.081 1330.23 89.0068C1317.45 92.0236 1306.07 98.8398 1297.31 108.734C1288.5 118.687 1283.12 130.897 1281.75 144.062C1311.45 157.803 1334.62 183.31 1345.39 214.123L1345.38 214.12ZM1281.66 144.985C1281.49 146.889 1281.4 148.814 1281.4 150.712C1281.4 167.648 1288 183.573 1299.99 195.546C1311.88 207.421 1327.65 214.006 1344.45 214.117C1333.75 183.754 1310.91 158.612 1281.65 144.985H1281.66ZM1402.33 122.67C1400.38 131.861 1399.39 141.294 1399.39 150.712C1399.39 168.232 1402.71 185.275 1409.27 201.387C1416.89 195.652 1423.2 188.175 1427.57 179.729C1432.23 170.703 1434.59 160.94 1434.59 150.712C1434.59 141.297 1432.57 132.238 1428.59 123.78C1426.07 123.915 1423.59 123.985 1421.23 123.985C1414.95 123.985 1408.59 123.544 1402.33 122.67ZM467.302 -146.314C444.6 -146.314 422.576 -141.872 401.841 -133.114C381.813 -124.654 363.83 -112.54 348.384 -97.1141C332.938 -81.6855 320.813 -63.722 312.343 -43.7172C303.575 -23.0085 299.128 -1.00909 299.128 21.6708C299.128 44.3508 303.575 66.3473 312.343 87.0589C320.813 107.064 332.941 125.027 348.384 140.456C363.83 155.884 381.813 167.995 401.841 176.459C422.573 185.217 444.597 189.659 467.302 189.659C468.244 189.659 469.197 189.641 470.124 189.624C472.062 179.268 477.468 169.698 485.38 162.639C493.341 155.537 503.556 151.253 514.184 150.549V150.444H575.286C589.306 138.704 601.249 124.864 610.789 109.31C620.464 93.5364 627.407 76.4111 631.43 58.4038C612.327 54.1955 594.194 46.8273 577.526 36.5007C561.048 26.2939 546.47 13.4937 534.2 -1.54062C521.824 -16.7063 512.175 -33.6768 505.53 -51.9878C498.65 -70.9355 495.162 -90.8586 495.162 -111.199V-144.01C485.97 -145.54 476.6 -146.317 467.302 -146.317V-146.314ZM515.064 151.323V151.378L514.652 151.401C504.071 152.009 493.885 156.232 485.967 163.296C478.246 170.186 472.954 179.51 471.024 189.609C490.324 189.192 509.184 185.529 527.092 178.725C544.205 172.221 560.06 163.007 574.237 151.323H515.064ZM780.241 76.7031C754.2 76.7031 733.012 97.8673 733.012 123.879C733.012 149.892 754.197 171.056 780.241 171.056C786.755 171.056 793.073 169.745 799.029 167.16C796.932 155.867 795.868 144.317 795.868 132.825C795.868 115.714 798.184 98.7552 802.754 82.4067C795.877 78.6744 788.103 76.7031 780.244 76.7031H780.241ZM803.54 82.8448C799.032 99.0531 796.745 115.866 796.745 132.825C796.745 144.194 797.792 155.619 799.853 166.795C816.647 159.126 827.468 142.342 827.468 123.882C827.468 106.906 818.313 91.2351 803.54 82.8477V82.8448ZM1402.51 121.818C1408.72 122.679 1415.01 123.114 1421.23 123.114C1423.47 123.114 1425.8 123.053 1428.19 122.93C1423.8 113.962 1417.28 106.068 1409.27 100.043C1406.41 107.073 1404.14 114.394 1402.52 121.815L1402.51 121.818ZM1409.61 99.2078C1417.91 105.408 1424.65 113.582 1429.14 122.881C1444.06 122.019 1458.6 118.725 1472.35 113.091C1485.79 107.589 1498.2 99.9789 1509.24 90.47C1520.22 81.0166 1529.55 69.9395 1536.99 57.5482C1544.49 45.0459 1549.87 31.5097 1552.98 17.3048C1546.77 16.4433 1540.48 16.0081 1534.26 16.0081C1507 16.0081 1480.74 24.0919 1458.32 39.389C1436.51 54.2597 1419.68 74.9392 1409.62 99.2108L1409.61 99.2078ZM1331.28 88.7732C1351.09 106.509 1375.4 117.881 1401.65 121.695C1403.3 114.128 1405.62 106.669 1408.55 99.5057C1397.62 91.5271 1384.69 87.313 1371.12 87.313H1344.88C1340.3 87.313 1335.72 87.8036 1331.28 88.7732ZM1344.88 86.4369H1371.12C1384.8 86.4369 1397.85 90.6656 1408.89 98.6705C1419.03 74.3288 1435.93 53.588 1457.82 38.6618C1480.39 23.2654 1506.82 15.1292 1534.26 15.1292C1540.54 15.1292 1546.89 15.5701 1553.16 16.4433C1555.1 7.24985 1556.09 -2.18307 1556.09 -11.5985C1556.09 -29.7839 1552.53 -47.4261 1545.49 -64.0345C1538.7 -80.0764 1528.98 -94.4828 1516.59 -106.854C1504.21 -119.225 1489.78 -128.938 1473.72 -135.725C1457.1 -142.748 1439.43 -146.311 1421.23 -146.311C1413.42 -146.311 1405.59 -145.637 1397.94 -144.305C1392.85 -131.07 1384 -119.753 1372.33 -111.57C1360.33 -103.151 1346.2 -98.6969 1331.48 -98.6969H1318.35C1308.25 -86.8109 1300.37 -73.4178 1294.91 -58.8917C1289.24 -43.7873 1286.36 -27.874 1286.36 -11.5956C1286.36 7.74924 1290.38 26.4224 1298.3 43.904C1305.93 60.7255 1316.75 75.5788 1330.48 88.0548C1335.17 86.983 1340.02 86.4369 1344.88 86.4369H1344.88ZM632.48 57.7409C644.461 60.3167 656.764 61.6221 669.053 61.6221C692.41 61.6221 715.066 57.0517 736.397 48.0422C756.998 39.3364 775.502 26.8779 791.392 11.0055C807.282 -4.86697 819.755 -23.3474 828.47 -43.9275C837.493 -65.2319 842.066 -87.8651 842.066 -111.196V-181.134H790.518C763.994 -181.134 742.414 -202.69 742.414 -229.184C742.414 -255.678 763.994 -277.236 790.518 -277.236H813.638C798.245 -300.579 777.212 -320.05 752.77 -333.58C740.224 -340.525 726.845 -345.881 712.999 -349.502C698.731 -353.234 683.946 -355.127 669.056 -355.127C645.698 -355.127 623.042 -350.556 601.711 -341.547C581.108 -332.844 562.606 -320.383 546.716 -304.51C530.826 -288.638 518.353 -270.157 509.638 -249.577C500.615 -228.273 496.042 -205.64 496.042 -182.308V-144.749C534.814 -138.117 570.284 -117.925 595.963 -87.8651C608.74 -72.9097 618.712 -56.0355 625.606 -37.7158C632.74 -18.7535 636.357 1.22794 636.357 21.6708C636.357 33.7935 635.053 45.9249 632.48 57.735V57.7409ZM496.039 -143.855V-111.193C496.039 -90.952 499.51 -71.1311 506.354 -52.2799C512.968 -34.0623 522.566 -17.1736 534.881 -2.08673C547.09 12.8716 561.595 25.6075 577.991 35.7648C594.577 46.0388 612.616 53.369 631.623 57.5569C634.185 45.8051 635.48 33.738 635.48 21.6767C635.48 1.33893 631.881 -18.5374 624.785 -37.4004C617.929 -55.6267 608.006 -72.4103 595.296 -87.2898C569.784 -117.154 534.553 -137.229 496.042 -143.852L496.039 -143.855ZM1132.3 -101.471V-37.8034C1132.3 -11.7912 1153.48 9.37006 1179.53 9.37006C1205.57 9.37006 1226.75 -11.7912 1226.75 -37.8034V-100.005C1202.17 -104.766 1181.75 -122.306 1173.32 -145.894C1150.87 -142.95 1133.68 -124.496 1132.37 -101.883L1132.35 -101.471H1132.3ZM902.996 -35.3356C920.81 -20.3043 943.436 -12.0366 966.791 -12.0366H1007.57C1018.89 -12.0366 1029.99 -13.9319 1040.57 -17.67C1050.57 -21.2067 1059.91 -26.3174 1068.31 -32.8591C1055.51 -39.4359 1041.95 -44.5145 1028.01 -47.9576C1013.42 -51.5585 998.332 -53.3867 983.167 -53.3867C955.096 -53.3867 928.131 -47.3152 903.001 -35.3386L902.996 -35.3356ZM983.161 -54.2599C998.399 -54.2599 1013.56 -52.4259 1028.21 -48.8046C1042.36 -45.3147 1056.1 -40.1485 1069.06 -33.452C1080.43 -42.479 1089.83 -54.0905 1096.25 -67.0484C1103.04 -80.7276 1106.47 -95.4582 1106.47 -110.834C1106.47 -137.223 1096.19 -162.035 1077.5 -180.696C1058.82 -199.358 1033.98 -209.635 1007.56 -209.635H990.701C982.968 -192.311 965.75 -181.131 946.755 -181.131H897.292C888.096 -172.064 880.869 -161.477 875.808 -149.664C870.543 -137.375 867.873 -124.312 867.873 -110.834C867.873 -82.0418 880.401 -54.7651 902.259 -35.9577C927.607 -48.1008 954.824 -54.2599 983.155 -54.2599H983.161ZM1319.1 -99.5731H1331.48C1346.02 -99.5731 1359.97 -103.968 1371.83 -112.286C1383.2 -120.267 1391.87 -131.262 1396.92 -144.124C1366.8 -138.645 1339.23 -122.858 1319.1 -99.5731H1319.1ZM1317.95 -99.5731C1338.36 -123.459 1366.52 -139.612 1397.29 -145.079C1400.27 -152.979 1401.77 -161.29 1401.77 -169.789C1401.77 -188.543 1394.46 -206.177 1381.18 -219.439C1367.91 -232.7 1350.26 -240.004 1331.48 -240.004H1236.68V-239.911L1236.27 -239.887C1199.15 -237.758 1170.07 -206.968 1170.07 -169.791C1170.07 -161.93 1171.36 -154.211 1173.91 -146.849C1175.82 -147.074 1177.71 -147.187 1179.52 -147.187C1204.85 -147.187 1225.85 -127.524 1227.52 -102.347H1227.62V-100.73C1230.48 -100.207 1233.39 -99.8563 1236.27 -99.6928L1236.68 -99.6694V-99.576H1317.94L1317.95 -99.5731ZM1174.21 -145.999C1182.55 -122.846 1202.61 -105.627 1226.75 -100.893V-101.468H1226.69L1226.67 -101.88C1225.23 -126.791 1204.53 -146.308 1179.52 -146.308C1177.81 -146.308 1176.02 -146.203 1174.2 -145.999H1174.21ZM898.195 -182.005H946.761C965.279 -182.005 982.076 -192.825 989.745 -209.632H966.791C941.036 -209.632 916.722 -199.831 898.198 -182.005H898.195ZM842.937 -182.005H896.935C915.702 -200.386 940.501 -210.508 966.788 -210.508H990.131C992.689 -216.428 993.987 -222.706 993.987 -229.178C993.987 -255.19 972.802 -276.354 946.758 -276.354H815.249C833.365 -248.316 842.934 -215.814 842.934 -182.303V-182.005H842.937ZM790.512 -276.352C764.471 -276.352 743.285 -255.19 743.285 -229.175C743.285 -203.16 764.471 -182.002 790.512 -182.002H842.06V-182.3C842.06 -215.829 832.429 -248.348 814.206 -276.352H790.512Z" fill="url(#paint1_linear_1761_70829)"/>
</g>
<defs>
<linearGradient id="paint0_linear_1761_70829" x1="950" y1="0" x2="950" y2="807" gradientUnits="userSpaceOnUse">
<stop offset="0.225" stop-color="#EDF6FE"/>
<stop offset="0.825" stop-color="white"/>
</linearGradient>
<linearGradient id="paint1_linear_1761_70829" x1="950" y1="0.999996" x2="950" y2="806.5" gradientUnits="userSpaceOnUse">
<stop stop-color="#66A9E2"/>
<stop offset="0.890389" stop-color="white"/>
</linearGradient>
<clipPath id="clip0_1761_70829">
<rect width="1900" height="807" fill="white"/>
</clipPath>
</defs>
</svg>
